<svg width="194" height="189" xmlns="http://www.w3.org/2000/svg" xmlns:xlink="http://www.w3.org/1999/xlink" overflow="hidden"><g transform="translate(-364 -118)"><path d="M472.397 170.881 405.936 238.05 471.491 303.518 454.2 304.8 396.516 247.571 378.2 266.082 378.2 305.8 364.8 305.8 364.8 260 364.829 260 364.8 259.971 452.2 171.2Z" fill="#E7E6E6" fill-rule="evenodd"/><path d="M487.691 174 501 174 501 304 487.691 304 487.691 192.973 433.411 247.453 424 238.008 487.691 174.083Z" fill-rule="evenodd"/><path d="M365 174 378.193 174 378.193 174.045 406 201.94 396.657 211.312 378.199 192.796 378.213 231.099 365 239Z" fill-rule="evenodd"/><path d="M497.5 122C525.288 122 549.101 142.737 554.072 171.265" stroke="#FFFFFF" stroke-width="6" stroke-miterlimit="8" fill="none" fill-rule="evenodd"/><path d="M496.846 131.635C518.657 134.974 536.719 151.031 543.343 172.971" stroke="#FFFFFF" stroke-width="6" stroke-miterlimit="8" fill="none" fill-rule="evenodd"/><path d="M494.64 142.588C512.22 146.894 526.841 159.568 534.12 176.812" stroke="#FFFFFF" stroke-width="6" stroke-miterlimit="8" fill="none" fill-rule="evenodd"/><path d="M493.997 153.974C506.728 159.085 517.32 168.786 523.885 181.349" stroke="#FFFFFF" stroke-width="6" stroke-miterlimit="8" fill="none" fill-rule="evenodd"/></g></svg>