<svg width="370" height="363" xmlns="http://www.w3.org/2000/svg" xmlns:xlink="http://www.w3.org/1999/xlink" overflow="hidden"><g transform="translate(-439 -161)"><path d="M441 307.5C441 227.143 506.143 162 586.5 162 666.857 162 732 227.143 732 307.5 732 387.857 666.857 453 586.5 453 506.143 453 441 387.857 441 307.5Z" fill="#FF0000" fill-rule="evenodd" fill-opacity="0.219608"/><path d="M439 371.5C439 291.143 504.143 226 584.5 226 664.857 226 730 291.143 730 371.5 730 451.857 664.857 517 584.5 517 504.143 517 439 451.857 439 371.5Z" fill="#FF0000" fill-rule="evenodd" fill-opacity="0.219608"/><path d="M511 377.5C511 297.143 576.143 232 656.5 232 736.857 232 802 297.143 802 377.5 802 457.857 736.857 523 656.5 523 576.143 523 511 457.857 511 377.5Z" fill="#FF0000" fill-rule="evenodd" fill-opacity="0.219608"/><path d="M517 313.5C517 233.143 582.143 168 662.5 168 742.857 168 808 233.143 808 313.5 808 393.857 742.857 459 662.5 459 582.143 459 517 393.857 517 313.5Z" fill="#FF0000" fill-rule="evenodd" fill-opacity="0.219608"/><path d="M470 339.5C470 259.143 535.143 194 615.5 194 695.857 194 761 259.143 761 339.5 761 419.857 695.857 485 615.5 485 535.143 485 470 419.857 470 339.5Z" fill="#FF0000" fill-rule="evenodd"/><path d="M664.398 271.453 597.936 338.622 663.491 404.09 646.2 405.372 588.516 348.143 570.2 366.654 570.2 406.372 556.8 406.372 556.8 360.572 556.829 360.572 556.8 360.543 644.2 271.772Z" fill="#FFFFFF" fill-rule="evenodd"/><path d="M679.691 274 693 274 693 405 679.691 405 679.691 293.119 625.411 348.018 616 338.5 679.691 274.084Z" fill-rule="evenodd"/><path d="M557 274 570.193 274 570.193 274.046 598 302.369 588.657 311.886 570.199 293.085 570.213 331.977 557 340Z" fill-rule="evenodd"/></g></svg>